# xmcd CD database file
# Copyright (C) 1996 Ti Kan
#
# Track frame offsets:
#	182
#	9857
#	18165
#	25917
#	34430
#	43035
#	52377
#	61152
#	67682
#	73747
#	81900
#	92170
#	99010
#	109540
#	118737
#	125682
#	135147
#	144882
#	153242
#	163322
#	174067
# Disc length: 2449 seconds
#
# Revision: 1
# Processed by: cddbd v1.4PL0 Copyright (c) Steve Scherf et al.
# Submitted via: CDCOPY 4.900
#
DISCID=08098f15
DTITLE=Paghjella - Valle Voce - 21 Polyphonies Corses
DYEAR=1900
DGENRE=
TTITLE0=Ringraziamenti
TTITLE1=Tanti Suspiri
TTITLE2=A Tintenna
TTITLE3=Cara Nazione
TTITLE4=Pianellu
TTITLE5=E Muntagne d'Orezza
TTITLE6=U Mo Paese Nativu
TTITLE7=O Culomba
TTITLE8=Nuvale
TTITLE9=Casevechje
TTITLE10=U Lamentu di Spanettu
TTITLE11=Ch'Ellu ti Sia Cuncessu
TTITLE12=A Mio Ghjallinuccia Nera
TTITLE13=Moita
TTITLE14=Paghjella Balanina
TTITLE15=Tagliu
TTITLE16=Sermanu
TTITLE17=Voce Muntagnole
TTITLE18=U Lamentu Di Spanettu
TTITLE19=Moita
TTITLE20=U Voceru Di Carlu Dumenicu
EXTD=
EXTT0=
EXTT1=
EXTT2=
EXTT3=
EXTT4=
EXTT5=
EXTT6=
EXTT7=
EXTT8=
EXTT9=
EXTT10=
EXTT11=
EXTT12=
EXTT13=
EXTT14=
EXTT15=
EXTT16=
EXTT17=
EXTT18=
EXTT19=
EXTT20=
PLAYORDER=
